<?xml version="1.0" standalone="no"?>
<!DOCTYPE svg PUBLIC "-//W3C//DTD SVG 20010904//EN"
 "http://www.w3.org/TR/2001/REC-SVG-20010904/DTD/svg10.dtd">
<svg version="1.0" xmlns="http://www.w3.org/2000/svg"
 width="900.000000pt" height="318.000000pt" viewBox="0 0 900.000000 318.000000"
 preserveAspectRatio="xMidYMid meet">
<metadata>
Created by potrace 1.10, written by Peter Selinger 2001-2011
</metadata>
<g transform="translate(0.000000,318.000000) scale(0.100000,-0.100000)"
fill="#5b3df4" stroke="none">
<path d="M366 2965 c-15 -8 -37 -15 -47 -15 -27 0 -139 -115 -139 -142 0 -13
-7 -32 -15 -42 -13 -17 -15 -177 -15 -1197 0 -1034 2 -1178 15 -1189 8 -7 15
-22 15 -34 0 -26 69 -106 92 -106 9 0 18 -7 22 -15 3 -8 18 -15 33 -15 15 -1
39 -7 53 -15 20 -11 82 -14 312 -15 274 0 288 1 298 19 5 11 10 31 10 44 0 14
7 30 15 37 8 7 15 25 15 40 0 15 7 33 15 40 8 7 15 24 15 39 0 14 7 35 15 45
8 11 15 30 15 42 0 12 7 27 15 34 8 7 15 25 15 40 0 15 7 33 15 40 8 7 15 27
15 45 0 20 6 35 15 39 9 3 15 18 15 34 0 16 7 35 15 42 8 7 15 19 15 27 0 20
1231 1253 1250 1253 9 0 25 7 36 15 10 8 29 15 42 15 l22 0 0 319 c0 263 -3
324 -15 347 -8 16 -15 41 -15 55 0 15 -7 32 -15 39 -8 7 -15 17 -15 22 0 16
-43 68 -57 68 -8 0 -16 7 -19 15 -4 8 -16 15 -28 15 -11 0 -30 7 -40 15 -30
23 -1947 22 -1990 0z m1754 -573 c33 -32 40 -46 40 -76 0 -31 -7 -44 -42 -77
l-42 -39 -714 0 c-707 0 -715 0 -748 21 -19 11 -34 27 -34 34 0 7 -7 15 -15
19 -10 3 -15 19 -15 45 0 25 5 41 15 45 8 3 15 12 15 21 0 8 6 15 14 15 8 0
16 7 20 15 5 13 96 15 735 15 l730 0 41 -38z m-337 -518 c61 -31 77 -53 77
-108 0 -41 -5 -55 -27 -78 l-27 -28 -596 0 -596 0 -32 36 c-57 64 -41 130 43
175 27 15 92 17 578 18 486 1 552 -1 580 -15z m-466 -540 c72 -24 93 -48 93
-105 0 -43 -4 -51 -37 -78 l-38 -31 -352 0 -352 0 -41 38 c-32 31 -40 46 -40
75 0 37 26 75 65 93 11 5 162 11 335 14 173 3 316 7 317 8 1 1 24 -5 50 -14z"/>
<path d="M4456 2338 c-14 -20 -16 -100 -16 -674 0 -618 1 -652 18 -667 28 -26
202 -24 225 1 15 17 17 78 17 675 l0 656 -22 15 c-16 12 -47 16 -115 16 -84 0
-93 -2 -107 -22z"/>
<path d="M3302 2318 c-9 -9 -12 -168 -12 -653 l0 -642 23 -21 c23 -21 31 -22
251 -22 221 0 333 11 436 42 177 53 280 184 280 359 0 114 -61 212 -174 279
-36 21 -38 25 -21 34 43 25 82 67 109 117 27 50 29 62 28 160 0 93 -3 111 -26
156 -30 60 -108 132 -168 154 -124 47 -143 49 -434 49 -205 0 -283 -3 -292
-12z m586 -250 c50 -30 62 -55 62 -126 0 -73 -16 -102 -75 -133 -31 -17 -54
-19 -173 -17 l-137 3 -3 147 -3 147 88 3 c136 5 204 -2 241 -24z m-46 -517
c111 -14 170 -97 148 -207 -11 -54 -33 -80 -88 -108 -26 -14 -59 -16 -185 -14
l-152 3 -3 155 c-1 85 0 160 2 167 6 14 176 17 278 4z"/>
<path d="M5214 1981 c-240 -77 -364 -248 -364 -504 0 -107 8 -148 49 -255 21
-57 117 -161 172 -188 119 -58 125 -59 284 -59 l150 1 75 37 c41 20 89 49 105
65 40 37 109 128 119 157 1 6 9 26 16 45 7 19 18 77 23 129 33 295 -84 488
-348 575 -65 21 -211 20 -281 -3z m229 -211 c105 -49 146 -126 147 -277 0
-109 -28 -200 -80 -254 -42 -43 -74 -53 -161 -53 -78 1 -90 3 -130 30 -27 18
-55 49 -71 79 -26 46 -28 59 -28 167 0 87 4 129 17 160 53 137 189 203 306
148z"/>
<path d="M6267 1980 c-26 -9 -53 -22 -59 -28 -7 -7 -18 -12 -25 -12 -19 0
-126 -111 -144 -151 -8 -19 -23 -50 -32 -69 -31 -69 -45 -250 -27 -359 14 -83
56 -180 98 -224 146 -155 376 -171 560 -39 l32 23 0 -47 c0 -99 -46 -174 -138
-222 -35 -18 -59 -22 -138 -22 -80 0 -102 4 -142 24 -26 13 -56 33 -66 45 -11
12 -28 21 -38 21 -24 0 -138 -97 -138 -117 0 -8 21 -37 47 -64 47 -51 170
-119 213 -119 11 0 51 -5 89 -12 93 -16 221 3 311 46 65 32 175 123 191 161 5
11 13 27 18 35 41 70 41 70 41 595 0 584 14 525 -124 525 -87 0 -116 -12 -116
-46 0 -16 -26 -19 -35 -3 -4 5 -17 14 -28 20 -12 5 -29 13 -37 18 -77 45 -219
55 -313 21z m246 -212 c54 -17 128 -90 145 -146 16 -54 15 -175 -1 -229 -25
-83 -102 -152 -189 -170 -42 -8 -132 25 -169 63 -95 98 -92 327 6 428 58 60
126 78 208 54z"/>
<path d="M7320 1983 c-25 -9 -49 -18 -55 -20 -41 -16 -135 -90 -135 -106 0 -6
-6 -18 -14 -26 -7 -9 -18 -37 -25 -63 -45 -188 59 -334 264 -369 200 -33 248
-51 264 -102 26 -79 -33 -137 -138 -137 -76 0 -126 23 -171 80 l-32 40 -104 0
-104 0 0 -45 c0 -46 17 -89 51 -133 22 -29 104 -92 119 -92 6 0 23 -8 37 -17
40 -26 332 -26 382 0 19 9 40 17 48 17 7 0 41 28 76 63 66 67 97 134 97 212 0
87 -69 203 -143 240 -53 27 -144 55 -177 55 -36 0 -167 28 -192 41 -9 5 -26
24 -38 44 -20 33 -21 36 -4 63 25 44 64 62 132 62 50 0 65 -5 101 -30 23 -17
46 -42 51 -55 5 -14 17 -25 27 -26 90 -4 173 1 191 10 66 35 -26 207 -139 262
-103 50 -274 65 -369 32z"/>
<path d="M7937 1978 c-26 -9 -28 -14 -24 -47 2 -20 14 -61 26 -91 13 -30 26
-66 31 -80 5 -14 18 -50 30 -80 12 -30 25 -66 30 -80 5 -14 18 -50 30 -80 12
-30 25 -66 30 -80 5 -14 18 -50 30 -80 12 -30 25 -66 30 -80 5 -14 18 -50 30
-80 47 -122 52 -136 57 -160 3 -14 10 -31 16 -37 12 -16 -7 -68 -37 -102 -37
-41 -93 -71 -136 -71 -32 0 -43 -5 -57 -27 -24 -36 -26 -159 -3 -173 8 -5 50
-10 92 -10 75 0 98 6 185 48 67 31 159 142 183 219 5 15 18 53 30 83 12 30 25
66 30 80 5 14 18 50 30 80 12 30 26 69 30 85 9 30 19 59 60 165 12 30 25 70
30 88 4 18 12 38 18 45 5 7 12 23 15 37 3 14 15 50 27 80 12 30 25 69 29 85 4
17 12 39 18 50 12 23 31 75 43 120 5 17 12 40 15 53 6 19 2 24 -29 37 -42 18
-150 19 -189 2 -29 -12 -49 -51 -66 -127 -5 -19 -13 -46 -18 -60 -6 -14 -18
-52 -28 -85 -9 -33 -23 -76 -30 -95 -12 -34 -68 -211 -80 -257 -4 -13 -10 -23
-15 -23 -17 0 -40 32 -40 55 0 14 -6 39 -14 57 -17 42 -35 94 -46 133 -5 17
-14 46 -21 65 -6 19 -17 51 -24 70 -7 19 -18 51 -24 70 -7 19 -17 49 -21 65
-32 110 -40 123 -85 134 -54 14 -150 13 -188 -1z"/>
<path d="M2575 1854 c-15 -8 -32 -14 -39 -14 -6 0 -56 -45 -111 -100 l-100
-101 209 -204 c115 -113 211 -205 214 -205 10 0 172 168 172 178 0 6 7 12 15
16 11 4 15 22 15 75 0 49 -5 74 -15 85 -8 8 -15 18 -15 22 0 4 -51 57 -113
118 -129 126 -182 156 -232 130z"/>
<path d="M1804 1119 c-214 -213 -391 -397 -395 -407 -4 -11 -12 -23 -18 -27
-6 -3 -11 -19 -11 -34 0 -16 -7 -34 -15 -41 -8 -7 -15 -25 -15 -40 0 -15 -7
-33 -15 -40 -8 -7 -15 -25 -15 -40 0 -15 -7 -33 -15 -40 -8 -7 -15 -27 -15
-45 0 -18 -7 -38 -15 -45 -8 -7 -15 -25 -15 -40 0 -15 -7 -33 -15 -40 -8 -7
-15 -22 -15 -34 0 -12 -7 -31 -15 -42 -21 -27 -18 -71 5 -94 24 -24 91 -27
110 -5 7 8 27 15 45 15 18 0 38 7 45 15 7 8 25 15 39 15 15 0 36 7 47 15 10 8
31 15 45 15 15 0 32 7 39 15 7 8 28 15 47 15 21 0 36 6 39 15 4 10 20 15 44
15 21 0 43 7 50 15 7 8 17 15 23 15 5 0 192 183 416 407 l406 408 -211 211
-212 211 -388 -388z m-218 -644 c38 -36 72 -65 77 -65 13 0 7 -33 -10 -52 -10
-11 -30 -18 -53 -18 -21 0 -43 -7 -50 -15 -7 -8 -27 -15 -45 -15 -18 0 -38 -7
-45 -15 -14 -17 -38 -19 -60 -5 -13 8 -13 13 3 39 9 16 17 41 17 55 0 14 4 26
10 26 5 0 12 12 16 28 10 50 39 102 55 102 10 0 48 -29 85 -65z"/>
<path d="M2337 529 c-120 -121 -223 -219 -228 -219 -5 0 -9 -5 -9 -11 0 -6
-16 -25 -36 -42 -20 -18 -47 -42 -61 -55 l-24 -22 179 0 c141 0 182 3 198 15
10 8 29 15 42 15 12 0 25 7 28 15 4 8 11 15 18 15 12 0 43 31 63 65 36 60 55
174 51 316 l-3 126 -218 -218z"/>
</g>
</svg>
